<mxfile host="app.diagrams.net" modified="2022-07-07T07:42:48.499Z" agent="5.0 (Windows NT 10.0; Win64; x64) AppleWebKit/537.36 (KHTML, like Gecko) Chrome/101.0.0.0 Safari/537.36" etag="Kk6WgziXlmWCOfLo7OoH" version="20.0.4" type="github">
  <diagram id="ObCENUlUA4ZSgpgrxgMP" name="Page-1">
    <mxGraphModel dx="1422" dy="762" grid="1" gridSize="10" guides="1" tooltips="1" connect="1" arrows="1" fold="1" page="1" pageScale="1" pageWidth="827" pageHeight="1169" math="0" shadow="0">
      <root>
        <mxCell id="0" />
        <mxCell id="1" parent="0" />
        <mxCell id="dxR8QtIztpEpAp44_qmE-1" value="&lt;font style=&quot;font-size: 18px;&quot;&gt;应用程序&lt;/font&gt;" style="rounded=0;whiteSpace=wrap;html=1;fillColor=#dae8fc;strokeColor=#6c8ebf;" vertex="1" parent="1">
          <mxGeometry x="190" y="120" width="390" height="80" as="geometry" />
        </mxCell>
        <mxCell id="dxR8QtIztpEpAp44_qmE-2" value="" style="shape=document;whiteSpace=wrap;html=1;boundedLbl=1;fontSize=24;fillColor=#f5f5f5;fontColor=#333333;strokeColor=#666666;" vertex="1" parent="1">
          <mxGeometry x="214" y="270" width="120" height="80" as="geometry" />
        </mxCell>
        <mxCell id="dxR8QtIztpEpAp44_qmE-3" value="" style="shape=document;whiteSpace=wrap;html=1;boundedLbl=1;fontSize=24;fillColor=#f5f5f5;fontColor=#333333;strokeColor=#666666;" vertex="1" parent="1">
          <mxGeometry x="204" y="290" width="120" height="80" as="geometry" />
        </mxCell>
        <mxCell id="dxR8QtIztpEpAp44_qmE-4" value="&lt;font style=&quot;font-size: 18px;&quot;&gt;资源管理器&lt;/font&gt;" style="shape=document;whiteSpace=wrap;html=1;boundedLbl=1;fontSize=24;fillColor=#f5f5f5;fontColor=#333333;strokeColor=#666666;" vertex="1" parent="1">
          <mxGeometry x="194" y="310" width="120" height="80" as="geometry" />
        </mxCell>
        <mxCell id="dxR8QtIztpEpAp44_qmE-6" value="" style="endArrow=classic;startArrow=classic;html=1;rounded=0;fontSize=18;" edge="1" parent="1">
          <mxGeometry width="50" height="50" relative="1" as="geometry">
            <mxPoint x="253.5" y="320" as="sourcePoint" />
            <mxPoint x="253.5" y="200" as="targetPoint" />
          </mxGeometry>
        </mxCell>
        <mxCell id="dxR8QtIztpEpAp44_qmE-7" value="事务管理器" style="rounded=1;whiteSpace=wrap;html=1;fontSize=18;fillColor=#e1d5e7;strokeColor=#9673a6;" vertex="1" parent="1">
          <mxGeometry x="430" y="279" width="140" height="100" as="geometry" />
        </mxCell>
        <mxCell id="dxR8QtIztpEpAp44_qmE-8" value="" style="endArrow=classic;startArrow=classic;html=1;rounded=0;fontSize=18;" edge="1" parent="1">
          <mxGeometry width="50" height="50" relative="1" as="geometry">
            <mxPoint x="312" y="341" as="sourcePoint" />
            <mxPoint x="422" y="341" as="targetPoint" />
          </mxGeometry>
        </mxCell>
        <mxCell id="dxR8QtIztpEpAp44_qmE-9" value="" style="endArrow=classic;html=1;rounded=0;fontSize=18;" edge="1" parent="1">
          <mxGeometry width="50" height="50" relative="1" as="geometry">
            <mxPoint x="490" y="200" as="sourcePoint" />
            <mxPoint x="490" y="280" as="targetPoint" />
          </mxGeometry>
        </mxCell>
        <mxCell id="dxR8QtIztpEpAp44_qmE-10" value="&lt;font style=&quot;font-size: 14px;&quot;&gt;开启XA事务&lt;/font&gt;" style="rounded=0;whiteSpace=wrap;html=1;fontSize=18;" vertex="1" parent="1">
          <mxGeometry x="50" y="510" width="120" height="60" as="geometry" />
        </mxCell>
        <mxCell id="dxR8QtIztpEpAp44_qmE-12" value="" style="endArrow=classic;html=1;rounded=0;fontSize=18;" edge="1" parent="1">
          <mxGeometry width="50" height="50" relative="1" as="geometry">
            <mxPoint x="109.5" y="570" as="sourcePoint" />
            <mxPoint x="109.5" y="630" as="targetPoint" />
          </mxGeometry>
        </mxCell>
        <mxCell id="dxR8QtIztpEpAp44_qmE-17" value="" style="edgeStyle=orthogonalEdgeStyle;rounded=0;orthogonalLoop=1;jettySize=auto;html=1;fontSize=18;" edge="1" parent="1" source="dxR8QtIztpEpAp44_qmE-13" target="dxR8QtIztpEpAp44_qmE-16">
          <mxGeometry relative="1" as="geometry" />
        </mxCell>
        <mxCell id="dxR8QtIztpEpAp44_qmE-13" value="&lt;font style=&quot;font-size: 14px;&quot;&gt;Active状态&lt;/font&gt;" style="ellipse;whiteSpace=wrap;html=1;fontSize=18;" vertex="1" parent="1">
          <mxGeometry x="50" y="632" width="120" height="70" as="geometry" />
        </mxCell>
        <mxCell id="dxR8QtIztpEpAp44_qmE-19" value="" style="edgeStyle=orthogonalEdgeStyle;rounded=0;orthogonalLoop=1;jettySize=auto;html=1;fontSize=18;" edge="1" parent="1" source="dxR8QtIztpEpAp44_qmE-16" target="dxR8QtIztpEpAp44_qmE-18">
          <mxGeometry relative="1" as="geometry" />
        </mxCell>
        <mxCell id="dxR8QtIztpEpAp44_qmE-16" value="&lt;font style=&quot;font-size: 14px;&quot;&gt;Idle状态&lt;/font&gt;" style="ellipse;whiteSpace=wrap;html=1;fontSize=18;" vertex="1" parent="1">
          <mxGeometry x="250" y="637" width="120" height="60" as="geometry" />
        </mxCell>
        <mxCell id="dxR8QtIztpEpAp44_qmE-18" value="&lt;font style=&quot;font-size: 14px;&quot;&gt;Prepared状态&lt;/font&gt;" style="ellipse;whiteSpace=wrap;html=1;fontSize=18;" vertex="1" parent="1">
          <mxGeometry x="450" y="637" width="120" height="60" as="geometry" />
        </mxCell>
        <mxCell id="dxR8QtIztpEpAp44_qmE-20" value="" style="endArrow=classic;html=1;rounded=0;fontSize=18;" edge="1" parent="1">
          <mxGeometry width="50" height="50" relative="1" as="geometry">
            <mxPoint x="320" y="637" as="sourcePoint" />
            <mxPoint x="460" y="560" as="targetPoint" />
          </mxGeometry>
        </mxCell>
        <mxCell id="dxR8QtIztpEpAp44_qmE-21" value="&lt;font style=&quot;font-size: 14px;&quot;&gt;Committed状态&lt;/font&gt;" style="ellipse;whiteSpace=wrap;html=1;fontSize=18;" vertex="1" parent="1">
          <mxGeometry x="460" y="533" width="120" height="60" as="geometry" />
        </mxCell>
        <mxCell id="dxR8QtIztpEpAp44_qmE-22" value="" style="endArrow=classic;html=1;rounded=0;fontSize=14;" edge="1" parent="1">
          <mxGeometry width="50" height="50" relative="1" as="geometry">
            <mxPoint x="511.5" y="633" as="sourcePoint" />
            <mxPoint x="511.5" y="593" as="targetPoint" />
          </mxGeometry>
        </mxCell>
        <mxCell id="dxR8QtIztpEpAp44_qmE-23" value="" style="endArrow=classic;html=1;rounded=0;fontSize=14;" edge="1" parent="1">
          <mxGeometry width="50" height="50" relative="1" as="geometry">
            <mxPoint x="509.5" y="697" as="sourcePoint" />
            <mxPoint x="509.5" y="747" as="targetPoint" />
          </mxGeometry>
        </mxCell>
        <mxCell id="dxR8QtIztpEpAp44_qmE-26" value="" style="edgeStyle=orthogonalEdgeStyle;rounded=0;orthogonalLoop=1;jettySize=auto;html=1;fontSize=14;" edge="1" parent="1" source="dxR8QtIztpEpAp44_qmE-24" target="dxR8QtIztpEpAp44_qmE-25">
          <mxGeometry relative="1" as="geometry" />
        </mxCell>
        <mxCell id="dxR8QtIztpEpAp44_qmE-24" value="&lt;span style=&quot;font-size: 14px;&quot;&gt;Failed状态&lt;/span&gt;" style="ellipse;whiteSpace=wrap;html=1;fontSize=18;" vertex="1" parent="1">
          <mxGeometry x="450" y="750" width="120" height="60" as="geometry" />
        </mxCell>
        <mxCell id="dxR8QtIztpEpAp44_qmE-25" value="&lt;font style=&quot;font-size: 14px;&quot;&gt;Aborted状态&lt;/font&gt;" style="ellipse;whiteSpace=wrap;html=1;fontSize=18;" vertex="1" parent="1">
          <mxGeometry x="250" y="750" width="120" height="60" as="geometry" />
        </mxCell>
        <mxCell id="dxR8QtIztpEpAp44_qmE-28" value="xa rollback" style="text;html=1;strokeColor=none;fillColor=none;align=center;verticalAlign=middle;whiteSpace=wrap;rounded=0;fontSize=14;" vertex="1" parent="1">
          <mxGeometry x="370" y="750" width="70" height="30" as="geometry" />
        </mxCell>
        <mxCell id="dxR8QtIztpEpAp44_qmE-29" value="xa commit" style="text;html=1;strokeColor=none;fillColor=none;align=center;verticalAlign=middle;whiteSpace=wrap;rounded=0;fontSize=14;" vertex="1" parent="1">
          <mxGeometry x="530" y="602" width="70" height="30" as="geometry" />
        </mxCell>
        <mxCell id="dxR8QtIztpEpAp44_qmE-30" value="xa prepare" style="text;html=1;strokeColor=none;fillColor=none;align=center;verticalAlign=middle;whiteSpace=wrap;rounded=0;fontSize=14;" vertex="1" parent="1">
          <mxGeometry x="370" y="632" width="70" height="30" as="geometry" />
        </mxCell>
        <mxCell id="dxR8QtIztpEpAp44_qmE-31" value="xa commit" style="text;html=1;strokeColor=none;fillColor=none;align=center;verticalAlign=middle;whiteSpace=wrap;rounded=0;fontSize=14;" vertex="1" parent="1">
          <mxGeometry x="344" y="563" width="70" height="30" as="geometry" />
        </mxCell>
        <mxCell id="dxR8QtIztpEpAp44_qmE-32" value="xa end" style="text;html=1;strokeColor=none;fillColor=none;align=center;verticalAlign=middle;whiteSpace=wrap;rounded=0;fontSize=14;" vertex="1" parent="1">
          <mxGeometry x="170" y="637" width="70" height="30" as="geometry" />
        </mxCell>
      </root>
    </mxGraphModel>
  </diagram>
</mxfile>
